# xmcd
#
# Track frame offsets: 
#        150
#        14984
#        31044
#        48671
#        65425
#        83884
#        101686
#        118400
#        133248
#        148084
#        168249
#        184483
#        200007
#        217590
#        236112
#        254579
#        269268
#
# Disc length: 3790 seconds
#
# Revision: 2
# Processed by: cddbd v1.5.2PL0 Copyright (c) Steve Scherf et al.
# Submitted via: ExactAudioCopy v0.95b4
#
DISCID=0c0ecc11
DTITLE=Various Artist - Interscope Presents Club Bangers CD 2
DYEAR=2006
DGENRE=Pop
TTITLE0=Gwen Stefani - Hollaback Girl
TTITLE1=Piper - Wobbly Wop
TTITLE2=The Game feat. 50 Cent - How We Do
TTITLE3=Keyshia Cole - Guess What
TTITLE4=Mary J. Blige - Be Without You (Kendu Mix)
TTITLE5=Obie Trice feat. Akon - Snitch
TTITLE6=Young Buck - Let Me In
TTITLE7=Beck - Hell Yes
TTITLE8=Olivia feat. Lloyd Banks - Twist It
TTITLE9=Snoop Dogg, Nate Dogg, Cam'Ron Lady May and Soopafly - Don't Fig
TTITLE9=ht The Feelin'
TTITLE10=Stat Quo - Billion Bucks
TTITLE11=Jibbs - Chain Hang Low
TTITLE12=Rich Boy feat. Polow Da Don - Throw Some D's
TTITLE13=Brick and Lace feat. Akon - Get That Clear (Remix)
TTITLE14=Styles feat. Akon - Can You Believe It
TTITLE15=Young Hot Rod feat. Mary J. Blige - Be Easy
TTITLE16=Slim Thug - Like A Boss
EXTD=
EXTT0=
EXTT1=
EXTT2=
EXTT3=
EXTT4=
EXTT5=
EXTT6=
EXTT7=
EXTT8=
EXTT9=
EXTT10=
EXTT11=
EXTT12=
EXTT13=
EXTT14=
EXTT15=
EXTT16=
PLAYORDER=
